<svg width="17" height="17" viewBox="0 0 17 17" fill="none" xmlns="http://www.w3.org/2000/svg">
<path d="M15.63 13.22C15.3833 13.22 15.1468 13.122 14.9724 12.9476C14.798 12.7732 14.7 12.5366 14.7 12.29V3.37435L2.0272 16.0472C1.91352 16.1696 1.76894 16.2591 1.60867 16.3062C1.4484 16.3533 1.27838 16.3564 1.11653 16.315C0.954684 16.2736 0.806992 16.1893 0.689019 16.0711C0.571045 15.9528 0.487158 15.8049 0.446196 15.6429C0.404759 15.4812 0.40765 15.3114 0.454565 15.1512C0.501479 14.9911 0.590682 14.8465 0.712796 14.7328L13.3856 2.05995H4.47C4.22334 2.05995 3.9868 1.96197 3.81239 1.78756C3.63798 1.61315 3.54 1.3766 3.54 1.12995C3.54 0.8833 3.63798 0.646751 3.81239 0.472342C3.9868 0.297933 4.22334 0.199951 4.47 0.199951H15.63C15.8766 0.199951 16.1132 0.297933 16.2876 0.472342C16.462 0.646751 16.56 0.8833 16.56 1.12995V12.29C16.56 12.5366 16.462 12.7732 16.2876 12.9476C16.1132 13.122 15.8766 13.22 15.63 13.22Z" fill="#202938"/>
</svg>
