<svg width="30" height="29" viewBox="0 0 30 29" fill="none" xmlns="http://www.w3.org/2000/svg">
<path fill-rule="evenodd" clip-rule="evenodd" d="M13.1627 6.60964C13.3382 6.77956 13.4368 7.0099 13.4368 7.25006C13.4368 7.49021 13.3382 7.72055 13.1627 7.89047L7.26265 13.5938H25.0002C25.2488 13.5938 25.4872 13.6893 25.6631 13.8592C25.8389 14.0292 25.9377 14.2597 25.9377 14.5001C25.9377 14.7404 25.8389 14.9709 25.6631 15.1409C25.4872 15.3108 25.2488 15.4063 25.0002 15.4063H7.26265L13.1627 21.1096C13.2548 21.1926 13.3286 21.2927 13.3799 21.4038C13.4311 21.515 13.4587 21.635 13.4609 21.7567C13.4631 21.8784 13.44 21.9992 13.3928 22.1121C13.3457 22.2249 13.2755 22.3274 13.1864 22.4135C13.0974 22.4995 12.9914 22.5674 12.8746 22.613C12.7579 22.6585 12.6329 22.6809 12.507 22.6788C12.3811 22.6766 12.257 22.65 12.142 22.6005C12.027 22.5509 11.9235 22.4795 11.8377 22.3905L4.33765 15.1405C4.16209 14.9706 4.06348 14.7402 4.06348 14.5001C4.06348 14.2599 4.16209 14.0296 4.33765 13.8596L11.8377 6.60964C12.0134 6.43993 12.2517 6.3446 12.5002 6.3446C12.7486 6.3446 12.9869 6.43993 13.1627 6.60964Z" fill="#222222"/>
</svg>
